<svg xmlns="http://www.w3.org/2000/svg" width="77.796" height="57.6"><g data-name="Group 16" fill="#fff"><path data-name="Subtraction 3" d="M14.84 40.378A15.108 15.108 0 010 25.049 15.108 15.108 0 0114.84 9.72a14.455 14.455 0 017.015 1.825l2.731-4.371-2.324-4.7h-2.4a1.217 1.217 0 01-1.2-1.234A1.217 1.217 0 0119.858 0H27.7a1.217 1.217 0 011.2 1.235 1.217 1.217 0 01-1.2 1.235h-2.753l1.741 3.524h17.255L41.85 1.8a1.28 1.28 0 01.042-1.208A1.2 1.2 0 0142.913 0h7.841A3.612 3.612 0 0154.3 3.665a3.612 3.612 0 01-3.546 3.665H49.5a1.236 1.236 0 010-2.47h1.255a1.2 1.2 0 000-2.391h-5.88l4.206 8.431a14.306 14.306 0 015.714-1.18 15.108 15.108 0 0114.84 15.329 15.548 15.548 0 01-2.786 8.932c-.761-.217-1.6-.455-2.492-.706a13.124 13.124 0 002.887-8.226A12.673 12.673 0 0054.795 12.19a12.021 12.021 0 00-4.613.919l5.675 11.375a1.263 1.263 0 01.075.942 1.217 1.217 0 01-.591.722 1.154 1.154 0 01-.547.137 1.189 1.189 0 01-1.064-.669l-5.672-11.373a12.936 12.936 0 00-5.712 10.805 13.206 13.206 0 001.427 5.976 12.885 12.885 0 003.8 4.493l-.678.267c-.671.263-1.3.512-1.9.765A15.681 15.681 0 0141.881 17.5a15.272 15.272 0 015.077-5.466L45.8 9.715l-9.949 15.862-1.573 5.287H35.3a1.236 1.236 0 010 2.47H31a1.236 1.236 0 010-2.47h.785l1.363-4.58h-3.516a15.482 15.482 0 01-4.708 10 14.53 14.53 0 01-10.084 4.094zm0-28.188A12.673 12.673 0 002.391 25.049 12.673 12.673 0 0014.84 37.908a12.19 12.19 0 008.391-3.37 12.988 12.988 0 004-8.254H14.84a1.191 1.191 0 01-1.05-.645 1.27 1.27 0 01.045-1.261l6.717-10.75a11.969 11.969 0 00-5.712-1.438zm11-2.472l-1.981 3.17a15.506 15.506 0 015.77 10.927H32.8zm-3.28 5.254l-5.525 8.842h10.2a13 13 0 00-1.49-4.968 12.784 12.784 0 00-3.185-3.874zm5.348-6.509l6.973 14.117 8.854-14.116z"/><path data-name="Path 14" d="M45.714 57.6c7.619 0 21.047-4.291 24.373-4.291 1.812 0 4.881.969 7.709 1.98V37.766c-1.414-.445-6.162-1.816-12.839-3.637a17.6 17.6 0 00-4.632-.577 30.9 30.9 0 00-11.189 2.351c-4.52 1.829-8.84 2.835-7.726 5.957.241.675 1.274.9 2.621.9 2.737 0 6.776-.935 8.123-.934.67 0 .674.231-.482.925a18.353 18.353 0 01-9.217 2.187 23.525 23.525 0 01-13.159-3.9 9.531 9.531 0 00-5.107-2.039 2.62 2.62 0 00-2.03 4.493c3.048 3.122 14.273 12.266 20.741 13.827a12.233 12.233 0 002.814.281z"/></g></svg>