<svg fill="#fff" xmlns="http://www.w3.org/2000/svg" viewBox="0 0 64 64" width="512" height="512"><path d="M49 26a12.933 12.933 0 00-4.246.726L40.525 17H46.5a1.5 1.5 0 010 3H44v2h2.5a3.5 3.5 0 000-7H39a1 1 0 00-.917 1.4l2 4.6h-16.72l-.972-3.054-1.907.608.861 2.7a.992.992 0 00-.229.277l-2.938 5.55a13 13 0 107.364 15.287l.5.094a2.989 2.989 0 002.409 2.482l1.1 3.288a1 1 0 00.925.684l3.5.083.046-2-2.8-.066-.775-2.324a2.978 2.978 0 001.018-4.309l10.617-14.7.836 1.924A12.987 12.987 0 1049 26zM13 49a10 10 0 113.769-19.257l-4.653 8.789a1 1 0 00.7 1.45l9.775 1.833A10.013 10.013 0 0113 49zm9.957-9.15l-8.437-1.582 4.017-7.588A9.995 9.995 0 0123 39c0 .287-.019.569-.043.85zm3.46.648l-.5-.093a12.926 12.926 0 00-5.98-12.378l2.223-4.2 5.032 15.793a2.99 2.99 0 00-.775.88zm3.42-1.365a2.96 2.96 0 00-.739-.123L24 23h16.953l.2.463zM49 49a9.994 9.994 0 01-4.881-18.719l3.964 9.119 1.834-.8-3.966-9.123A10 10 0 1149 49zM17.414 13a1.414 1.414 0 00-1 2.414l.57.57a3.469 3.469 0 003.55.838l4.671-1.557a1.162 1.162 0 00.8-1.1A1.162 1.162 0 0024.838 13z"/></svg>