<svg xmlns="http://www.w3.org/2000/svg" width="38.874" height="57.605"><g fill="#fff"><path data-name="Path 6" d="M8.739 43.563v-5.045h13.949a15.715 15.715 0 014.162-.483 15.025 15.025 0 013.974.481c1.814.495 3.356.916 4.716 1.294v-1.292h.112a2.979 2.979 0 002.925-2.962l.006-1.441a13.1 13.1 0 00-1.419-5.467l-.292-.524a4.906 4.906 0 00-1.547-1.594l-3.611-8.788a6.42 6.42 0 00-4.281-3.55 5.732 5.732 0 01-1.255 1.23 15.369 15.369 0 01-3.568 1.728h3.643a3.2 3.2 0 012.588 1.734l2.736 6.617h-24.4l2.521-6.093a13.794 13.794 0 01-1.585-.31c-.509-.139-1-.263-1.473-.394l-3.233 7.868a4.714 4.714 0 00-1.45 1.584l-.229.437a13.907 13.907 0 00-1.342 5.493l.007 1.465a2.98 2.98 0 002.928 2.967h-.02v3.357a11.286 11.286 0 013.826 1.693H8.74zM5.144 31.318a1.721 1.721 0 11-1.721 1.721 1.721 1.721 0 011.721-1.721zm30.12 1.721a1.721 1.721 0 11-1.723-1.721 1.721 1.721 0 011.723 1.721zm-11.118 1.784h-9.128a1.554 1.554 0 010-3.107h9.128a1.554 1.554 0 010 3.107z"/><path data-name="Path 7" d="M8.883 16.12a12.335 12.335 0 003.214.4 21.313 21.313 0 007.7-1.615c3.1-1.257 6.08-1.947 5.314-4.091-.166-.464-.871-.619-1.8-.619-1.88 0-4.652.642-5.577.642-.46 0-.462-.159.332-.635a12.606 12.606 0 016.331-1.5 16.161 16.161 0 019.038 2.677 6.547 6.547 0 003.508 1.4 1.8 1.8 0 001.394-3.086c-2.093-2.144-9.8-8.425-14.246-9.5A8.4 8.4 0 0022.165 0C16.931 0 7.644 2.947 5.359 2.947A20.147 20.147 0 010 1.587v12.036c.975.305 4.297 1.247 8.883 2.497z"/><path data-name="Path 8" d="M16.807 57.605c5.233 0 14.456-2.947 16.741-2.947a19.786 19.786 0 015.295 1.36V43.983c-.971-.306-4.232-1.247-8.818-2.5a12.09 12.09 0 00-3.182-.4 21.227 21.227 0 00-7.685 1.615c-3.1 1.257-6.072 1.947-5.306 4.091.166.464.875.619 1.8.619 1.88 0 4.654-.642 5.579-.642.46 0 .463.159-.331.636a12.606 12.606 0 01-6.331 1.5 16.158 16.158 0 01-9.038-2.677 6.547 6.547 0 00-3.507-1.4A1.8 1.8 0 00.63 47.911c2.093 2.144 9.8 8.425 14.246 9.5a8.4 8.4 0 001.931.194z"/></g></svg>