<svg xmlns="http://www.w3.org/2000/svg" width="55.742" height="57.601"><g data-name="Group 21"><g data-name="Group 20"><path data-name="Path 23" d="M46 34.987a1.19 1.19 0 00-.918-.437h-4.5c-1.111-2.931-2.559-5.8-4.2-6.887-5.693-3.745-20.792-3.745-26.484 0-1.651 1.084-3.093 3.96-4.21 6.884h-4.5a1.186 1.186 0 00-1.16 1.425l.664 3.235a1.184 1.184 0 001.16.94h1.334a8 8 0 00-1.92 5.228A7.832 7.832 0 003.74 51.26c.018.015.036.026.052.041v4.522A1.778 1.778 0 005.569 57.6h4.154a1.778 1.778 0 001.777-1.776v-1.818h23.269v1.817a1.778 1.778 0 001.777 1.777H40.7a1.78 1.78 0 001.777-1.777v-4.432A8.128 8.128 0 0043 40.147h1.423a1.18 1.18 0 001.16-.945l.668-3.231a1.194 1.194 0 00-.251-.984zm-34.155-4.356c4.537-2.987 18.042-2.987 22.577 0 .881.578 2.015 2.916 3.054 5.778H8.793c1.037-2.862 2.17-5.198 3.052-5.778zM6.53 45.825a3.5 3.5 0 113.5 3.5 3.5 3.5 0 01-3.5-3.5zm29.759 3.5a3.5 3.5 0 113.5-3.5 3.5 3.5 0 01-3.5 3.496z" fill="#fff"/></g><path data-name="Path 24" d="M55.315 18.968l-.519-.705a2.222 2.222 0 01-.021-2.593l.5-.712a2.218 2.218 0 00-.767-3.242l-.774-.415a2.219 2.219 0 01-1.141-2.33l.145-.864a2.224 2.224 0 00-2.1-2.593l-.871-.035a2.218 2.218 0 01-2.039-1.6l-.242-.843a2.224 2.224 0 00-3.014-1.424l-.8.346a2.224 2.224 0 01-2.537-.56l-.581-.65a2.225 2.225 0 00-3.339.021l-.574.657a2.221 2.221 0 01-2.523.595l-.809-.332a2.223 2.223 0 00-2.994 1.473L30.088 4a2.223 2.223 0 01-2.019 1.632l-.871.048a2.224 2.224 0 00-2.06 2.62l.159.857a2.225 2.225 0 01-1.106 2.343l-.767.422a2.226 2.226 0 00-.719 3.256l.519.705a2.222 2.222 0 01.021 2.593l-.5.712a2.218 2.218 0 00.767 3.242l.774.415a2.219 2.219 0 011.141 2.33l-.145.864a2.224 2.224 0 002.1 2.593l.871.035a2.218 2.218 0 012.039 1.6l.242.843a2.224 2.224 0 003.014 1.424l.8-.346a2.224 2.224 0 012.537.56l.581.65a2.222 2.222 0 003.332-.028l.574-.657a2.221 2.221 0 012.523-.595l.809.332a2.223 2.223 0 002.994-1.473l.228-.843a2.223 2.223 0 012.019-1.632l.871-.048a2.224 2.224 0 002.06-2.62l-.159-.857a2.225 2.225 0 011.106-2.344l.767-.422a2.214 2.214 0 00.725-3.243zm-12.188 3.775a4.669 4.669 0 01-2.392 1.535.667.667 0 00-.581.76c.021.422 0 .85 0 1.272a.52.52 0 01-.567.588q-.684.021-1.369 0a.554.554 0 01-.595-.622c-.007-.311-.007-.622-.007-.926-.007-.684-.028-.712-.684-.816a8.474 8.474 0 01-2.434-.7c-.6-.29-.664-.442-.491-1.079.131-.47.256-.947.408-1.41.173-.539.318-.608.816-.353a7.891 7.891 0 002.7.809 3.33 3.33 0 001.777-.235 1.379 1.379 0 00.332-2.42 4.355 4.355 0 00-1.009-.595 23.627 23.627 0 01-2.765-1.244 3.914 3.914 0 01-2.212-3.74 4.12 4.12 0 013.007-3.816c.74-.27.74-.256.747-1.03v-.78c.014-.581.111-.684.691-.7.18-.007.36 0 .539 0 1.231 0 1.231 0 1.238 1.231.007.871 0 .878.871 1.009a7.74 7.74 0 011.915.574.564.564 0 01.366.747c-.152.532-.3 1.072-.47 1.6-.159.5-.318.574-.8.339a6.134 6.134 0 00-3.035-.6 2.315 2.315 0 00-.809.166 1.144 1.144 0 00-.283 2.039 5.267 5.267 0 001.32.74 23.479 23.479 0 012.406 1.085 4.342 4.342 0 011.37 6.572z" fill="#fff"/></g></svg>