<svg xmlns="http://www.w3.org/2000/svg" width="49.789" height="50"><g data-name="Group 72"><g data-name="Group 71"><g data-name="Group 70"><g data-name="Group 69"><g data-name="Group 61"><path data-name="Rectangle 16" fill="none" d="M10.078 5.904h34V50h-34z"/><path d="M44.87 0H5.835C2.13 0-.002 1.351-.002 5.056V43.08c0 3.705.938 6.709 4.643 6.709h20L24.677 32h-4.622a1.091 1.091 0 01-1.091-1.086l-.022-5.735a1.091 1.091 0 011.091-1.095h4.614v-5.545c0-6.431 3.928-9.932 9.664-9.932h4.707A1.091 1.091 0 0140.109 9.7v4.836a1.091 1.091 0 01-1.09 1.091H36.13c-3.12 0-3.724 1.483-3.724 3.658v4.8h6.855a1.091 1.091 0 011.084 1.215l-.68 5.735a1.091 1.091 0 01-1.083.965h-6.145l-.031 17.792H44.87c3.705 0 4.918-3 4.918-6.709V6.709C49.788 3 48.576 0 44.87 0z" fill="#1d58a6"/></g></g></g></g></g></svg>