<svg xmlns="http://www.w3.org/2000/svg" width="47.957" height="57.6"><g fill="#fff"><path data-name="Path 9" d="M14.833 33.998a24.273 24.273 0 014.219.38v-4.052h9.947v7.232a11.129 11.129 0 012.827 1.462 5.267 5.267 0 012.407 4.107 15.617 15.617 0 005.247-2.268c.555-.378 1.221-.709 1.611-.993V28.611L23.979 9.665 6.57 28.725v6.81c1.17-.294 2.237-.61 3.473-.944a18.473 18.473 0 014.79-.593z"/><path data-name="Path 10" d="M24.056 4.892l19.3 21.417h4.4L24.017 0 14.2 10.739V6.4H7v12.24L.079 26.309h4.463z"/><path data-name="Path 11" d="M45.578 41.914a8.125 8.125 0 00-4.336 1.72 20.071 20.071 0 01-11.173 3.288 15.665 15.665 0 01-7.825-1.846c-.982-.585-.979-.781-.409-.781 1.143 0 4.572.788 6.9.788 1.143 0 2.019-.191 2.224-.76.947-2.634-2.724-3.482-6.562-5.025a26.422 26.422 0 00-9.505-1.983 15.21 15.21 0 00-3.955.486C5.268 39.336 1.172 40.493.004 40.869v14.78a24.169 24.169 0 016.577-1.67c2.824 0 14.25 3.619 20.72 3.619a10.489 10.489 0 002.392-.233c5.491-1.317 15.024-9.03 17.612-11.663a2.209 2.209 0 00-1.727-3.788z"/></g></svg>