<svg xmlns="http://www.w3.org/2000/svg" width="50" height="50"><g data-name="Group 60"><path data-name="Rectangle 15" fill="none" d="M3 3.29h44v42H3z"/><path d="M45.477 0H4.523A4.523 4.523 0 000 4.523v40.954A4.523 4.523 0 004.523 50h40.954A4.523 4.523 0 0050 45.477V4.523A4.523 4.523 0 0045.477 0zm-30 43.173a1.316 1.316 0 01-1.316 1.316h-5.6a1.316 1.316 0 01-1.316-1.316V19.686a1.316 1.316 0 011.308-1.316h5.6a1.316 1.316 0 011.316 1.316zm-4.123-27.017a5.323 5.323 0 115.323-5.323 5.323 5.323 0 01-5.323 5.323zm33.4 27.123a1.21 1.21 0 01-1.21 1.21H37.53a1.21 1.21 0 01-1.21-1.21V32.263c0-1.643.482-7.2-4.295-7.2-3.705 0-4.457 3.8-4.608 5.512v12.704a1.21 1.21 0 01-1.21 1.21h-5.815a1.21 1.21 0 01-1.21-1.21V19.58a1.21 1.21 0 011.21-1.21h5.815a1.21 1.21 0 011.21 1.21v2.049c1.374-2.062 3.416-3.653 7.763-3.653 9.627 0 9.572 8.994 9.572 13.936v11.367z" fill="#1d58a6"/></g></svg>