<svg xmlns="http://www.w3.org/2000/svg" width="50.001" height="50.001"><g data-name="Group 58"><path data-name="Subtraction 2" d="M46 50H4a4.005 4.005 0 01-4-4V4a4.005 4.005 0 014-4h42a4.005 4.005 0 014 4v42a4.005 4.005 0 01-4 4zM24.979 5.992a20.225 20.225 0 00-7.407 1.385 19.118 19.118 0 00-6.049 3.776 17.553 17.553 0 00-4.078 5.6 16.4 16.4 0 00-1.5 6.859 17.092 17.092 0 007.09 13.721v6.719l6.484-3.552a20.488 20.488 0 005.458.738 20.226 20.226 0 007.407-1.385 19.12 19.12 0 006.049-3.776 17.553 17.553 0 004.079-5.6 16.479 16.479 0 000-13.718 17.553 17.553 0 00-4.078-5.6 19.117 19.117 0 00-6.049-3.776 20.222 20.222 0 00-7.406-1.391zm1.888 23.727l-4.843-5.167-9.451 5.166 10.4-11.039 4.964 5.168 9.336-5.168-10.4 11.04z" fill="#1d58a6"/></g></svg>